HIERARCHY
ROOT mixamorig:Hips
{
	OFFSET 0.000000 201.639420 0.000000
	CHANNELS 6 Xposition Yposition Zposition Xrotation Yrotation Zrotation
	JOINT mixamorig:Spine
	{
		OFFSET 0.006200 19.524994 -2.481800
		CHANNELS 3 Xrotation Yrotation Zrotation
		JOINT mixamorig:Spine1
		{
			OFFSET -0.000900 22.835007 -2.825400
			CHANNELS 3 Xrotation Yrotation Zrotation
			JOINT mixamorig:Spine2
			{
				OFFSET -0.020600 26.552490 -3.193300
				CHANNELS 3 Xrotation Yrotation Zrotation
				JOINT mixamorig:Neck
				{
					OFFSET -0.060000 30.701813 1.352200
					CHANNELS 3 Xrotation Yrotation Zrotation
					JOINT mixamorig:Head
					{
						OFFSET -0.087200 22.547607 3.670900
						CHANNELS 3 Xrotation Yrotation Zrotation
						JOINT mixamorig:HeadTop_End
						{
							OFFSET -0.830600 40.355194 7.893500
							CHANNELS 3 Xrotation Yrotation Zrotation
							End Site
							{
								OFFSET 0.000000 30.592346 0.000000
							}
						}
						JOINT mixamorig:RightEye
						{
							OFFSET -6.302100 18.118591 16.197100
							CHANNELS 3 Xrotation Yrotation Zrotation
							End Site
							{
								OFFSET 0.000000 30.592346 0.000000
							}
						}
						JOINT mixamorig:LeftEye
						{
							OFFSET 6.741500 18.382690 16.401899
							CHANNELS 3 Xrotation Yrotation Zrotation
							End Site
							{
								OFFSET 0.000000 30.592346 0.000000
							}
						}
					}
				}
				JOINT mixamorig:LeftShoulder
				{
					OFFSET 11.924900 18.230499 1.425400
					CHANNELS 3 Xrotation Yrotation Zrotation
					JOINT mixamorig:LeftArm
					{
						OFFSET 25.435989 -0.697632 -5.229300
						CHANNELS 3 Xrotation Yrotation Zrotation
						JOINT mixamorig:LeftForeArm
						{
							OFFSET 54.684776 0.000000 0.000000
							CHANNELS 3 Xrotation Yrotation Zrotation
							JOINT mixamorig:LeftHand
							{
								OFFSET 55.098175 0.000000 0.000000
								CHANNELS 3 Xrotation Yrotation Zrotation
								JOINT mixamorig:LeftHandMiddle1
								{
									OFFSET 23.369751 0.000000 0.000000
									CHANNELS 3 Xrotation Yrotation Zrotation
									JOINT mixamorig:LeftHandMiddle2
									{
										OFFSET 6.378677 0.000000 0.000000
										CHANNELS 3 Xrotation Yrotation Zrotation
										JOINT mixamorig:LeftHandMiddle3
										{
											OFFSET 6.148331 0.000000 0.000000
											CHANNELS 3 Xrotation Yrotation Zrotation
											JOINT mixamorig:LeftHandMiddle4
											{
												OFFSET 6.582504 0.000000 0.000000
												CHANNELS 3 Xrotation Yrotation Zrotation
												End Site
												{
													OFFSET -1.168900 6.395691 1.028606
												}
											}
										}
									}
								}
								JOINT mixamorig:LeftHandThumb1
								{
									OFFSET 7.235672 -3.848206 5.434273
									CHANNELS 3 Xrotation Yrotation Zrotation
									JOINT mixamorig:LeftHandThumb2
									{
										OFFSET 6.568451 -3.792297 3.792300
										CHANNELS 3 Xrotation Yrotation Zrotation
										JOINT mixamorig:LeftHandThumb3
										{
											OFFSET 6.063080 -3.500519 3.500518
											CHANNELS 3 Xrotation Yrotation Zrotation
											JOINT mixamorig:LeftHandThumb4
											{
												OFFSET 4.793182 -2.767334 2.767349
												CHANNELS 3 Xrotation Yrotation Zrotation
												End Site
												{
													OFFSET 0.101639 6.054260 1.275483
												}
											}
										}
									}
								}
								JOINT mixamorig:LeftHandIndex1
								{
									OFFSET 23.101074 -0.309540 4.992809
									CHANNELS 3 Xrotation Yrotation Zrotation
									JOINT mixamorig:LeftHandIndex2
									{
										OFFSET 6.226883 0.000000 0.000000
										CHANNELS 3 Xrotation Yrotation Zrotation
										JOINT mixamorig:LeftHandIndex3
										{
											OFFSET 6.094330 0.000000 0.000000
											CHANNELS 3 Xrotation Yrotation Zrotation
											JOINT mixamorig:LeftHandIndex4
											{
												OFFSET 5.482605 0.000000 0.000000
												CHANNELS 3 Xrotation Yrotation Zrotation
												End Site
												{
													OFFSET -1.427902 5.233032 0.797164
												}
											}
										}
									}
								}
								JOINT mixamorig:LeftHandRing1
								{
									OFFSET 22.299240 0.021149 -3.964172
									CHANNELS 3 Xrotation Yrotation Zrotation
									JOINT mixamorig:LeftHandRing2
									{
										OFFSET 6.321869 0.000000 0.000000
										CHANNELS 3 Xrotation Yrotation Zrotation
										JOINT mixamorig:LeftHandRing3
										{
											OFFSET 5.899796 0.000000 0.000000
											CHANNELS 3 Xrotation Yrotation Zrotation
											JOINT mixamorig:LeftHandRing4
											{
												OFFSET 6.517899 0.000000 0.000000
												CHANNELS 3 Xrotation Yrotation Zrotation
												End Site
												{
													OFFSET -1.637299 6.232208 0.980890
												}
											}
										}
									}
								}
								JOINT mixamorig:LeftHandPinky1
								{
									OFFSET 20.463791 -0.302338 -8.562233
									CHANNELS 3 Xrotation Yrotation Zrotation
									JOINT mixamorig:LeftHandPinky2
									{
										OFFSET 6.908646 0.000000 0.000000
										CHANNELS 3 Xrotation Yrotation Zrotation
										JOINT mixamorig:LeftHandPinky3
										{
											OFFSET 4.622849 0.000000 0.000000
											CHANNELS 3 Xrotation Yrotation Zrotation
											JOINT mixamorig:LeftHandPinky4
											{
												OFFSET 5.216080 0.000000 0.000000
												CHANNELS 3 Xrotation Yrotation Zrotation
												End Site
												{
													OFFSET -0.606308 5.116241 0.814926
												}
											}
										}
									}
								}
							}
						}
					}
				}
				JOINT mixamorig:RightShoulder
				{
					OFFSET -12.001300 18.284088 1.348900
					CHANNELS 3 Xrotation Yrotation Zrotation
					JOINT mixamorig:RightArm
					{
						OFFSET -25.308500 -0.751312 -5.164599
						CHANNELS 3 Xrotation Yrotation Zrotation
						JOINT mixamorig:RightForeArm
						{
							OFFSET -54.684429 0.000000 0.000000
							CHANNELS 3 Xrotation Yrotation Zrotation
							JOINT mixamorig:RightHand
							{
								OFFSET -55.150291 0.000000 0.000000
								CHANNELS 3 Xrotation Yrotation Zrotation
								JOINT mixamorig:RightHandMiddle1
								{
									OFFSET -23.317566 0.000000 0.000000
									CHANNELS 3 Xrotation Yrotation Zrotation
									JOINT mixamorig:RightHandMiddle2
									{
										OFFSET -6.378403 0.000000 0.000000
										CHANNELS 3 Xrotation Yrotation Zrotation
										JOINT mixamorig:RightHandMiddle3
										{
											OFFSET -6.148193 0.000000 0.000000
											CHANNELS 3 Xrotation Yrotation Zrotation
											JOINT mixamorig:RightHandMiddle4
											{
												OFFSET -6.583389 0.000000 0.000000
												CHANNELS 3 Xrotation Yrotation Zrotation
												End Site
												{
													OFFSET 1.171692 6.395905 1.029786
												}
											}
										}
									}
								}
								JOINT mixamorig:RightHandThumb1
								{
									OFFSET -7.190521 -3.860474 5.435846
									CHANNELS 3 Xrotation Yrotation Zrotation
									JOINT mixamorig:RightHandThumb2
									{
										OFFSET -6.567429 -3.791718 3.791708
										CHANNELS 3 Xrotation Yrotation Zrotation
										JOINT mixamorig:RightHandThumb3
										{
											OFFSET -6.062469 -3.500153 3.500166
											CHANNELS 3 Xrotation Yrotation Zrotation
											JOINT mixamorig:RightHandThumb4
											{
												OFFSET -4.792618 -2.767029 2.767022
												CHANNELS 3 Xrotation Yrotation Zrotation
												End Site
												{
													OFFSET -0.100327 6.053253 1.276754
												}
											}
										}
									}
								}
								JOINT mixamorig:RightHandIndex1
								{
									OFFSET -23.048981 -0.310791 4.992554
									CHANNELS 3 Xrotation Yrotation Zrotation
									JOINT mixamorig:RightHandIndex2
									{
										OFFSET -6.227539 0.000000 0.000000
										CHANNELS 3 Xrotation Yrotation Zrotation
										JOINT mixamorig:RightHandIndex3
										{
											OFFSET -6.095047 0.000000 0.000000
											CHANNELS 3 Xrotation Yrotation Zrotation
											JOINT mixamorig:RightHandIndex4
											{
												OFFSET -5.484772 0.000000 0.000000
												CHANNELS 3 Xrotation Yrotation Zrotation
												End Site
												{
													OFFSET 1.420593 5.237305 0.797056
												}
											}
										}
									}
								}
								JOINT mixamorig:RightHandRing1
								{
									OFFSET -22.246323 0.020569 -3.963762
									CHANNELS 3 Xrotation Yrotation Zrotation
									JOINT mixamorig:RightHandRing2
									{
										OFFSET -6.322128 0.000000 0.000000
										CHANNELS 3 Xrotation Yrotation Zrotation
										JOINT mixamorig:RightHandRing3
										{
											OFFSET -5.900024 0.000000 0.000000
											CHANNELS 3 Xrotation Yrotation Zrotation
											JOINT mixamorig:RightHandRing4
											{
												OFFSET -6.518356 0.000000 0.000000
												CHANNELS 3 Xrotation Yrotation Zrotation
												End Site
												{
													OFFSET 1.636398 6.232697 0.982186
												}
											}
										}
									}
								}
								JOINT mixamorig:RightHandPinky1
								{
									OFFSET -20.411011 -0.303314 -8.561701
									CHANNELS 3 Xrotation Yrotation Zrotation
									JOINT mixamorig:RightHandPinky2
									{
										OFFSET -6.907349 0.000000 0.000000
										CHANNELS 3 Xrotation Yrotation Zrotation
										JOINT mixamorig:RightHandPinky3
										{
											OFFSET -4.623840 0.000000 0.000000
											CHANNELS 3 Xrotation Yrotation Zrotation
											JOINT mixamorig:RightHandPinky4
											{
												OFFSET -5.218353 0.000000 0.000000
												CHANNELS 3 Xrotation Yrotation Zrotation
												End Site
												{
													OFFSET 0.602097 5.118835 0.816273
												}
											}
										}
									}
								}
							}
						}
					}
				}
			}
		}
	}
	JOINT mixamorig:LeftUpLeg
	{
		OFFSET 18.168400 -13.561905 -0.039000
		CHANNELS 3 Xrotation Yrotation Zrotation
		JOINT mixamorig:LeftLeg
		{
			OFFSET 0.577358 -80.825211 -3.695000
			CHANNELS 3 Xrotation Yrotation Zrotation
			JOINT mixamorig:LeftFoot
			{
				OFFSET -0.577356 -83.370262 -6.520700
				CHANNELS 3 Xrotation Yrotation Zrotation
				JOINT mixamorig:LeftToeBase
				{
					OFFSET 0.750401 -20.798306 25.135401
					CHANNELS 3 Xrotation Yrotation Zrotation
					JOINT mixamorig:LeftToe_End
					{
						OFFSET -0.000500 0.001200 19.917799
						CHANNELS 3 Xrotation Yrotation Zrotation
						End Site
						{
							OFFSET 0.000000 19.917805 0.000000
						}
					}
				}
			}
		}
	}
	JOINT mixamorig:RightUpLeg
	{
		OFFSET -18.162500 -13.585098 -0.041000
		CHANNELS 3 Xrotation Yrotation Zrotation
		JOINT mixamorig:RightLeg
		{
			OFFSET -0.595024 -80.945297 -3.631900
			CHANNELS 3 Xrotation Yrotation Zrotation
			JOINT mixamorig:RightFoot
			{
				OFFSET 0.595024 -83.218193 -6.561200
				CHANNELS 3 Xrotation Yrotation Zrotation
				JOINT mixamorig:RightToeBase
				{
					OFFSET -0.753601 -20.807106 25.115000
					CHANNELS 3 Xrotation Yrotation Zrotation
					JOINT mixamorig:RightToe_End
					{
						OFFSET 0.000299 0.001700 19.918200
						CHANNELS 3 Xrotation Yrotation Zrotation
						End Site
						{
							OFFSET 0.000000 19.918203 0.000000
						}
					}
				}
			}
		}
	}
}
MOTION
Frames: 6
Frame Time: 0.033333
0.049612 193.176163 -1.737335 -15.774853 -39.036177 -9.216746 7.881534 0.138323 0.069677 16.393060 -0.099596 -0.727014 16.392515 -0.167601 -0.702191 0.009500 7.505612 0.918649 -7.040732 21.893593 11.748329 0.000002 0.000002 0.000002 0.000002 0.000002 0.000002 0.000002 0.000002 0.000002 -37.584328 -4.849851 1.874093 -41.987908 -6.773179 -61.634473 0.000067 -64.968445 0.000061 -119.621679 1.050442 32.295655 0.405914 5.507034 -52.453151 3.387126 5.308613 -65.057484 0.282018 1.797457 -17.832371 0.000002 0.000001 -0.000000 4.765892 9.689653 3.114097 19.473192 -1.474889 7.636920 -4.536186 -9.613103 1.492981 -0.000001 0.000001 0.000000 -0.190109 3.961075 -36.701673 2.942131 5.078907 -60.144610 0.513683 2.400824 -24.150512 -0.000000 0.000000 0.000001 -0.074376 5.736805 -61.061427 4.049711 5.567790 -72.039918 0.582663 2.548979 -25.748000 -0.000000 -0.000001 -0.000004 -6.700222 4.525575 -72.537483 3.284837 5.260031 -63.946526 0.166432 1.387914 -13.675915 -0.000001 -0.000000 -0.000001 -41.134309 -8.443090 -9.718713 -47.402589 58.298274 100.763035 0.000056 98.296517 -0.000063 -52.454354 -17.225452 -29.272637 3.413054 -7.186261 51.650242 6.296830 -4.359598 110.634673 0.248727 -1.503069 18.790262 0.000001 -0.000000 -0.000000 8.377128 -4.904135 11.022003 21.620192 -18.183891 -18.379219 -0.702953 -49.821196 -32.535207 -0.000002 0.000001 -0.000001 -0.917359 1.687931 12.394989 0.739658 -2.520343 32.706453 0.615652 -2.316064 29.767832 -0.000000 0.000000 -0.000003 -3.349044 -2.600432 57.010564 5.440861 -4.590889 99.698174 1.689398 -3.590687 50.382228 0.000000 0.000001 -0.000001 -3.996454 -3.303940 64.593850 4.058848 -4.618649 82.610523 2.315530 -4.026771 59.787214 -0.000001 -0.000000 -0.000002 -25.887539 41.424421 30.798054 25.129658 0.635084 -0.623457 3.211186 1.257546 -2.903216 -0.079188 0.000006 -0.000000 -0.000000 -0.000000 0.000000 0.389217 8.603487 -3.950176 33.696486 -5.449464 2.031090 -19.581232 -15.815154 4.870347 -0.156299 0.000029 -0.000001 0.000000 -0.000000 -0.000000 
0.487749 193.635101 -1.506424 -16.383310 -39.003553 -9.326764 7.935123 0.035535 -0.025440 16.403695 -0.112912 -0.736664 16.403476 -0.180596 -0.711776 0.194901 7.492037 0.879400 -7.006236 21.740820 11.817230 0.000000 0.000000 -0.000000 0.000000 0.000000 -0.000000 0.000000 0.000000 -0.000000 -37.577300 -4.834884 1.705424 -41.804227 -6.902572 -61.660025 0.000041 -64.985200 0.000023 -119.482753 1.085552 32.433536 0.405915 5.507036 -52.453148 3.387122 5.308616 -65.057477 0.282022 1.797461 -17.832372 0.000002 0.000001 -0.000002 4.736320 9.622154 3.113014 19.473190 -1.474890 7.636919 -4.536181 -9.613104 1.492978 0.000000 -0.000001 0.000002 -0.201955 3.946774 -36.725394 2.942130 5.078909 -60.144610 0.513678 2.400820 -24.150512 0.000002 0.000001 0.000001 -0.074376 5.736802 -61.061427 4.052484 5.568691 -72.068652 0.582669 2.548982 -25.747996 -0.000002 -0.000002 -0.000003 -6.629931 4.535692 -72.478873 3.292550 5.263774 -64.030722 0.171061 1.406778 -13.865387 -0.000002 0.000001 -0.000003 -41.155561 -8.527779 -9.832916 -47.097624 58.266513 100.858610 -0.000713 98.375051 0.000748 -52.460173 -17.219359 -29.272862 3.413056 -7.186260 51.650246 6.296830 -4.359599 110.634673 0.248727 -1.503069 18.790260 0.000000 0.000000 -0.000001 8.377131 -4.904134 11.022003 21.620183 -18.183893 -18.379221 -0.702958 -49.821206 -32.535203 0.000002 0.000002 -0.000001 -0.918737 1.685654 12.415873 0.744059 -2.527185 32.806601 0.615652 -2.316064 29.767826 -0.000001 0.000000 -0.000001 -3.349044 -2.600431 57.010564 5.440863 -4.590889 99.698168 1.689396 -3.590688 50.382218 -0.000001 0.000000 -0.000002 -3.996456 -3.303940 64.593850 4.058848 -4.618650 82.610523 2.315531 -4.026772 59.787221 -0.000001 -0.000000 0.000001 -24.261845 42.143534 29.757970 23.764405 0.564952 -0.648175 3.677895 1.316727 -2.728539 -0.000018 -0.000003 -0.000002 -0.000000 -0.000000 0.000000 1.341316 7.391100 -4.624675 32.577701 -3.437155 1.601273 -19.229668 -16.546722 4.659668 -0.114126 0.000009 -0.000001 -0.000000 0.000002 0.000000 
0.729519 193.973175 -1.391254 -16.767889 -38.981399 -9.391445 7.973538 -0.030266 -0.090320 16.410479 -0.121648 -0.743135 16.410452 -0.189113 -0.718240 0.315650 7.483949 0.851093 -6.987768 21.640488 11.862871 0.000001 -0.000000 -0.000000 0.000001 -0.000000 -0.000000 0.000001 -0.000000 -0.000000 -37.572898 -4.826017 1.594181 -41.683302 -6.983243 -61.676492 0.000011 -64.994659 0.000008 -119.391474 1.110128 32.521611 0.405915 5.507040 -52.453155 3.387125 5.308610 -65.057477 0.282016 1.797460 -17.832372 0.000005 0.000002 0.000002 4.717259 9.578751 3.112294 19.473185 -1.474890 7.636923 -4.536184 -9.613105 1.492979 0.000003 -0.000001 0.000001 -0.209593 3.937606 -36.740684 2.942126 5.078914 -60.144610 0.513676 2.400823 -24.150516 0.000000 0.000000 -0.000005 -0.074376 5.736808 -61.061427 4.054269 5.569270 -72.087114 0.582670 2.548976 -25.747993 0.000001 0.000002 -0.000002 -6.584691 4.542329 -72.441171 3.297524 5.266183 -64.084926 0.174060 1.418883 -13.987336 0.000000 0.000003 0.000001 -41.169915 -8.582407 -9.908871 -46.901611 58.249001 100.920874 0.000323 98.423484 -0.000287 -52.466382 -17.213318 -29.273255 3.413055 -7.186261 51.650239 6.296829 -4.359598 110.634673 0.248727 -1.503069 18.790260 0.000002 0.000000 -0.000001 8.377128 -4.904134 11.022002 21.620189 -18.183890 -18.379219 -0.702957 -49.821203 -32.535207 0.000000 0.000002 -0.000003 -0.919646 1.684206 12.429281 0.746922 -2.531588 32.871033 0.615652 -2.316061 29.767826 0.000001 0.000000 -0.000002 -3.349043 -2.600433 57.010564 5.440863 -4.590890 99.698168 1.689397 -3.590688 50.382228 -0.000002 0.000000 0.000000 -3.996455 -3.303941 64.593857 4.058849 -4.618647 82.610523 2.315532 -4.026773 59.787221 0.000001 -0.000001 -0.000000 -23.086898 42.643972 28.991602 22.669094 0.590009 -0.640741 4.099135 1.283586 -2.634967 -0.000036 -0.000003 0.000002 0.000000 0.000001 0.000000 1.956286 6.170547 -5.127137 31.736829 -1.627621 1.257529 -19.009561 -17.075398 4.434896 -0.069363 -0.000016 0.000001 -0.000000 0.000003 0.000000 
0.803839 194.156570 -1.359829 -16.902620 -38.973254 -9.412295 7.991578 -0.058422 -0.118963 16.413453 -0.125523 -0.745990 16.413513 -0.192921 -0.721089 0.367404 7.480967 0.837545 -6.982131 21.597273 11.883003 0.000001 0.000002 -0.000001 0.000001 0.000002 -0.000001 0.000001 0.000002 -0.000001 -37.571074 -4.822513 1.545824 -41.628381 -7.015800 -61.684408 0.000015 -64.995909 0.000010 -119.359618 1.120090 32.550281 0.405915 5.507038 -52.453155 3.387121 5.308616 -65.057477 0.282020 1.797459 -17.832371 -0.000002 -0.000001 0.000001 4.709214 9.560374 3.111987 19.473187 -1.474890 7.636917 -4.536185 -9.613102 1.492982 0.000001 0.000001 -0.000001 -0.212814 3.933707 -36.747121 2.942127 5.078909 -60.144610 0.513681 2.400822 -24.150512 0.000002 0.000002 -0.000000 -0.074376 5.736804 -61.061427 4.055044 5.569504 -72.094914 0.582663 2.548973 -25.747995 -0.000003 -0.000006 0.000001 -6.565575 4.545136 -72.425215 3.299632 5.267211 -64.107828 0.175339 1.424014 -14.038884 0.000000 0.000001 0.000001 -41.176294 -8.605646 -9.942310 -46.819676 58.242956 100.948686 -0.000672 98.443018 0.000650 -52.463083 -17.216614 -29.273101 3.413054 -7.186261 51.650246 6.296830 -4.359598 110.634680 0.248726 -1.503070 18.790262 0.000001 -0.000000 -0.000000 8.377128 -4.904135 11.022003 21.620189 -18.183895 -18.379219 -0.702955 -49.821203 -32.535210 0.000000 0.000002 0.000001 -0.920017 1.683574 12.434973 0.748113 -2.533457 32.898289 0.615652 -2.316064 29.767826 0.000001 0.000001 -0.000002 -3.349043 -2.600433 57.010568 5.440862 -4.590891 99.698174 1.689396 -3.590686 50.382224 -0.000001 0.000000 -0.000003 -3.996455 -3.303940 64.593850 4.058851 -4.618649 82.610516 2.315531 -4.026771 59.787214 -0.000001 -0.000001 -0.000001 -22.539870 42.895289 28.627862 22.052261 0.666072 -0.619626 4.360187 1.190438 -2.603867 0.000004 -0.000003 -0.000002 -0.000000 -0.000001 0.000000 2.214201 5.284084 -5.404114 31.255123 -0.426466 1.068909 -18.942423 -17.326124 4.272676 -0.020509 -0.000010 0.000003 0.000000 0.000002 0.000000 
0.803839 194.156570 -1.359829 -16.902620 -38.973254 -9.412295 7.991578 -0.058422 -0.118963 16.413453 -0.125523 -0.745990 16.413513 -0.192921 -0.721089 0.367404 7.480967 0.837545 -6.982131 21.597273 11.883003 0.000001 0.000002 -0.000001 0.000001 0.000002 -0.000001 0.000001 0.000002 -0.000001 -37.571074 -4.822513 1.545824 -41.628381 -7.015800 -61.684408 0.000015 -64.995909 0.000010 -119.359618 1.120090 32.550281 0.405915 5.507038 -52.453155 3.387121 5.308616 -65.057477 0.282020 1.797459 -17.832371 -0.000002 -0.000001 0.000001 4.709214 9.560374 3.111987 19.473187 -1.474890 7.636917 -4.536185 -9.613102 1.492982 0.000001 0.000001 -0.000001 -0.212814 3.933707 -36.747121 2.942127 5.078909 -60.144610 0.513681 2.400822 -24.150512 0.000002 0.000002 -0.000000 -0.074376 5.736804 -61.061427 4.055044 5.569504 -72.094914 0.582663 2.548973 -25.747995 -0.000003 -0.000006 0.000001 -6.565575 4.545136 -72.425215 3.299632 5.267211 -64.107828 0.175339 1.424014 -14.038884 0.000000 0.000001 0.000001 -41.176294 -8.605646 -9.942310 -46.819676 58.242956 100.948686 -0.000672 98.443018 0.000650 -52.463083 -17.216614 -29.273101 3.413054 -7.186261 51.650246 6.296830 -4.359598 110.634680 0.248726 -1.503070 18.790262 0.000001 -0.000000 -0.000000 8.377128 -4.904135 11.022003 21.620189 -18.183895 -18.379219 -0.702955 -49.821203 -32.535210 0.000000 0.000002 0.000001 -0.920017 1.683574 12.434973 0.748113 -2.533457 32.898289 0.615652 -2.316064 29.767826 0.000001 0.000001 -0.000002 -3.349043 -2.600433 57.010568 5.440862 -4.590891 99.698174 1.689396 -3.590686 50.382224 -0.000001 0.000000 -0.000003 -3.996455 -3.303940 64.593850 4.058851 -4.618649 82.610516 2.315531 -4.026771 59.787214 -0.000001 -0.000001 -0.000001 -22.539870 42.895289 28.627862 22.052261 0.666072 -0.619626 4.360187 1.190438 -2.603867 0.000004 -0.000003 -0.000002 -0.000000 -0.000001 0.000000 2.214201 5.284084 -5.404114 31.255123 -0.426466 1.068909 -18.942423 -17.326124 4.272676 -0.020509 -0.000010 0.000003 0.000000 0.000002 0.000000 
0.803839 194.156570 -1.359829 -16.902620 -38.973254 -9.412295 7.991578 -0.058422 -0.118963 16.413453 -0.125523 -0.745990 16.413513 -0.192921 -0.721089 0.367404 7.480967 0.837545 -6.982131 21.597273 11.883003 0.000001 0.000002 -0.000001 0.000001 0.000002 -0.000001 0.000001 0.000002 -0.000001 -37.571074 -4.822513 1.545824 -41.628381 -7.015800 -61.684408 0.000015 -64.995909 0.000010 -119.359618 1.120090 32.550281 0.405915 5.507038 -52.453155 3.387121 5.308616 -65.057477 0.282020 1.797459 -17.832371 -0.000002 -0.000001 0.000001 4.709214 9.560374 3.111987 19.473187 -1.474890 7.636917 -4.536185 -9.613102 1.492982 0.000001 0.000001 -0.000001 -0.212814 3.933707 -36.747121 2.942127 5.078909 -60.144610 0.513681 2.400822 -24.150512 0.000002 0.000002 -0.000000 -0.074376 5.736804 -61.061427 4.055044 5.569504 -72.094914 0.582663 2.548973 -25.747995 -0.000003 -0.000006 0.000001 -6.565575 4.545136 -72.425215 3.299632 5.267211 -64.107828 0.175339 1.424014 -14.038884 0.000000 0.000001 0.000001 -41.176294 -8.605646 -9.942310 -46.819676 58.242956 100.948686 -0.000672 98.443018 0.000650 -52.463083 -17.216614 -29.273101 3.413054 -7.186261 51.650246 6.296830 -4.359598 110.634680 0.248726 -1.503070 18.790262 0.000001 -0.000000 -0.000000 8.377128 -4.904135 11.022003 21.620189 -18.183895 -18.379219 -0.702955 -49.821203 -32.535210 0.000000 0.000002 0.000001 -0.920017 1.683574 12.434973 0.748113 -2.533457 32.898289 0.615652 -2.316064 29.767826 0.000001 0.000001 -0.000002 -3.349043 -2.600433 57.010568 5.440862 -4.590891 99.698174 1.689396 -3.590686 50.382224 -0.000001 0.000000 -0.000003 -3.996455 -3.303940 64.593850 4.058851 -4.618649 82.610516 2.315531 -4.026771 59.787214 -0.000001 -0.000001 -0.000001 -22.539870 42.895289 28.627862 22.052261 0.666072 -0.619626 4.360187 1.190438 -2.603867 0.000004 -0.000003 -0.000002 -0.000000 -0.000001 0.000000 2.214201 5.284084 -5.404114 31.255123 -0.426466 1.068909 -18.942423 -17.326124 4.272676 -0.020509 -0.000010 0.000003 0.000000 0.000002 0.000000 
